<svg width="495" height="490" viewBox="0 0 495 490" fill="none" xmlns="http://www.w3.org/2000/svg">
<path d="M158.531 427.84C157.706 426.802 157.327 425.479 157.477 424.161C157.628 422.844 158.296 421.64 159.334 420.815C172.408 410.422 188.754 405.635 205.355 407.329C335.58 420.631 343.809 405.322 445.524 322.451C456.218 313.738 455.322 297.153 443.741 289.642C437.136 285.359 428.548 285.294 421.862 289.479C415.866 293.233 409.749 297.63 403.68 302.549C386.77 316.018 367.399 329.416 351.692 326.862L232.411 307.564C231.144 307.359 230.004 306.675 229.228 305.653C217.741 290.534 204.13 282.041 188.775 280.408C153.249 276.623 114.927 309.507 96.5118 325.308C93.6008 327.806 91.0858 329.963 89.0708 331.566C88.5576 331.982 87.967 332.292 87.3332 332.479C86.6994 332.665 86.035 332.724 85.3783 332.652C84.7216 332.58 84.0856 332.379 83.5072 332.06C82.9287 331.741 82.4192 331.31 82.0082 330.793C81.5971 330.276 81.2926 329.682 81.1123 329.047C80.9319 328.411 80.8793 327.746 80.9575 327.09C81.0356 326.434 81.243 325.8 81.5677 325.225C81.8923 324.649 82.3277 324.144 82.8488 323.738C84.7178 322.253 87.1658 320.152 90.0008 317.719C109.48 301.006 150.015 266.235 189.833 270.464C207.473 272.34 222.98 281.604 235.954 298.007L353.293 316.991C366.755 319.182 389.029 301.434 397.417 294.754C403.767 289.607 410.217 284.972 416.556 281.003C426.523 274.764 439.329 274.86 449.183 281.252C466.454 292.453 467.808 317.195 451.841 330.204C349.565 413.526 338.731 431 204.339 417.278C190.348 415.845 176.574 419.884 165.556 428.643C164.518 429.468 163.194 429.847 161.877 429.696C160.56 429.546 159.356 428.878 158.531 427.84Z" fill="#1E73BE"/>
<path d="M236.057 358.203C234.748 357.991 233.576 357.268 232.8 356.193C232.024 355.118 231.707 353.778 231.919 352.469C232.131 351.16 232.854 349.988 233.929 349.212C235.004 348.436 236.344 348.119 237.653 348.331L325.83 362.581C340.529 362.367 350.122 357.055 351.524 348.329C352.845 340.106 346.197 328.64 331.275 323.585C330.653 323.374 330.079 323.043 329.585 322.611C329.091 322.178 328.687 321.652 328.396 321.064C328.105 320.475 327.933 319.835 327.89 319.179C327.846 318.524 327.932 317.867 328.143 317.245C328.354 316.623 328.685 316.049 329.117 315.555C329.55 315.061 330.075 314.657 330.664 314.366C331.253 314.075 331.893 313.903 332.548 313.86C333.204 313.816 333.861 313.902 334.483 314.113C352.434 320.194 363.753 335.251 361.397 349.915C359.142 363.949 345.721 372.424 325.496 372.585C324.648 372.586 330.339 373.411 236.057 358.203ZM130.038 487.902L19.3379 374.238C18.4273 373.303 17.9184 372.049 17.9199 370.744C17.9214 369.439 18.4332 368.186 19.3459 367.253L72.6409 312.767C74.7469 310.612 78.2619 310.802 80.1289 313.152L178.339 436.694C179.079 437.625 179.463 438.79 179.422 439.978C179.38 441.167 178.917 442.302 178.114 443.18L137.309 487.788C135.392 489.885 132.066 489.985 130.038 487.902ZM29.9069 370.757L133.507 477.131L167.857 439.578L75.8269 323.81L29.9069 370.757ZM312.254 278.919C235.349 278.919 172.783 216.351 172.783 139.445C172.783 62.555 235.349 0 312.254 0C389.152 0 451.714 62.555 451.714 139.445C451.714 216.352 389.153 278.919 312.254 278.919ZM312.254 10C240.863 10 182.783 68.069 182.783 139.445C182.783 210.837 240.864 268.919 312.254 268.919C383.638 268.919 441.714 210.837 441.714 139.445C441.714 68.069 383.638 10 312.254 10Z" fill="#1E73BE"/>
<path d="M312.254 278.919C290.724 278.919 270.723 264.006 255.936 236.927C226.432 182.897 226.413 96.031 255.936 41.981C270.723 14.909 290.724 0 312.254 0C333.784 0 353.786 14.909 368.573 41.981C398.084 96.007 398.092 182.875 368.573 236.927C353.786 264.006 333.784 278.919 312.254 278.919ZM264.712 46.775C236.825 97.83 236.827 181.07 264.712 232.134C291.479 281.151 332.99 281.221 359.796 232.134C387.678 181.078 387.688 97.837 359.796 46.775C333.03 -2.228 291.518 -2.299 264.712 46.775Z" fill="#1E73BE"/>
<path d="M312.254 278.833C310.928 278.833 309.656 278.306 308.718 277.369C307.781 276.431 307.254 275.159 307.254 273.833V5C307.254 3.67392 307.781 2.40215 308.718 1.46447C309.656 0.526784 310.928 0 312.254 0C313.58 0 314.852 0.526784 315.789 1.46447C316.727 2.40215 317.254 3.67392 317.254 5V273.833C317.254 275.159 316.727 276.431 315.789 277.369C314.852 278.306 313.58 278.833 312.254 278.833Z" fill="#1E73BE"/>
<path d="M426.532 73.548H198.578C197.252 73.548 195.98 73.0212 195.042 72.0835C194.105 71.1459 193.578 69.8741 193.578 68.548C193.578 67.2219 194.105 65.9502 195.042 65.0125C195.98 64.0748 197.252 63.548 198.578 63.548H426.532C427.858 63.548 429.13 64.0748 430.068 65.0125C431.005 65.9502 431.532 67.2219 431.532 68.548C431.532 69.8741 431.005 71.1459 430.068 72.0835C429.13 73.0212 427.858 73.548 426.532 73.548ZM427.228 214.222H197.882C196.556 214.222 195.284 213.695 194.346 212.758C193.409 211.82 192.882 210.548 192.882 209.222C192.882 207.896 193.409 206.624 194.346 205.686C195.284 204.749 196.556 204.222 197.882 204.222H427.228C428.554 204.222 429.826 204.749 430.764 205.686C431.701 206.624 432.228 207.896 432.228 209.222C432.228 210.548 431.701 211.82 430.764 212.758C429.826 213.695 428.554 214.222 427.228 214.222ZM446.714 144.445H178.376C177.05 144.445 175.778 143.918 174.84 142.981C173.903 142.043 173.376 140.771 173.376 139.445C173.376 138.119 173.903 136.847 174.84 135.909C175.778 134.972 177.05 134.445 178.376 134.445H446.714C448.04 134.445 449.312 134.972 450.25 135.909C451.187 136.847 451.714 138.119 451.714 139.445C451.714 140.771 451.187 142.043 450.25 142.981C449.312 143.918 448.04 144.445 446.714 144.445ZM468.058 61.599C453.683 61.599 441.988 49.904 441.988 35.528C441.988 21.153 453.683 9.45801 468.058 9.45801C482.433 9.45801 494.128 21.153 494.128 35.528C494.128 49.903 482.433 61.599 468.058 61.599ZM468.058 19.457C459.197 19.457 451.988 26.666 451.988 35.527C451.988 44.388 459.197 51.598 468.058 51.598C476.919 51.598 484.128 44.389 484.128 35.527C484.128 26.665 476.919 19.457 468.058 19.457ZM107.031 196.103C92.656 196.103 80.96 184.408 80.96 170.032C80.96 155.657 92.655 143.962 107.031 143.962C121.406 143.962 133.101 155.657 133.101 170.032C133.101 184.408 121.406 196.103 107.031 196.103ZM107.031 153.962C98.17 153.962 90.96 161.171 90.96 170.032C90.96 178.893 98.169 186.103 107.031 186.103C115.893 186.103 123.101 178.894 123.101 170.032C123.101 161.17 115.892 153.962 107.031 153.962ZM22.653 484.886C10.162 484.886 0 474.724 0 462.233C0 449.742 10.162 439.579 22.653 439.579C35.144 439.579 45.307 449.742 45.307 462.233C45.307 474.724 35.144 484.886 22.653 484.886ZM22.653 449.579C15.676 449.579 10 455.256 10 462.233C10 469.21 15.676 474.886 22.653 474.886C29.631 474.886 35.307 469.21 35.307 462.233C35.307 455.256 29.631 449.579 22.653 449.579Z" fill="#1E73BE"/>
<path d="M459.368 470.923C464.167 470.923 468.058 467.032 468.058 462.233C468.058 457.434 464.167 453.543 459.368 453.543C454.569 453.543 450.678 457.434 450.678 462.233C450.678 467.032 454.569 470.923 459.368 470.923Z" fill="#1E73BE"/>
<path d="M22.6529 35.5284C27.4522 35.5284 31.3429 31.6378 31.3429 26.8384C31.3429 22.0391 27.4522 18.1484 22.6529 18.1484C17.8535 18.1484 13.9629 22.0391 13.9629 26.8384C13.9629 31.6378 17.8535 35.5284 22.6529 35.5284Z" fill="#1E73BE"/>
</svg>
