<svg width="512" height="512" viewBox="0 0 512 512" fill="none" xmlns="http://www.w3.org/2000/svg">
<g clip-path="url(#clip0_2019_36)">
<path d="M469.057 0H69.0568C52.5148 0 39.0579 13.458 39.0579 29.9999V335.888C39.0579 352.43 52.5148 365.888 69.0568 365.888H113.47L23.8519 449.956C16.9749 456.408 13.1019 465.262 12.9489 474.888C12.7919 484.747 16.6819 494.382 23.6239 501.324C30.5599 508.264 40.2119 512.157 50.0568 511.997C59.6848 511.844 68.5398 507.972 74.9918 501.095L187.169 381.512C241.682 419.186 324.121 411.708 370.938 365.889H469.059C485.601 365.889 499.059 352.431 499.059 335.889V29.9999C499.057 13.458 485.599 0 469.057 0ZM60.4038 487.41C57.6898 490.302 53.9018 491.931 49.7368 491.998C45.2748 492.069 40.8979 490.314 37.7649 487.181C34.6299 484.047 32.8729 479.682 32.9449 475.207C33.0119 471.044 34.6419 467.257 37.5349 464.543L126.182 381.387L143.56 398.765L60.4038 487.41ZM157.251 384.169L140.777 367.695L155.546 353.841C160.347 359.398 165.547 364.599 171.105 369.4L157.251 384.169ZM139.058 255.889C139.058 184.207 197.375 125.89 269.057 125.89C441.283 132.425 441.236 379.38 269.055 385.89C197.375 385.889 139.058 327.571 139.058 255.889ZM469.057 345.888H388.986C463.158 249.647 391.586 104.756 269.055 105.891C151.125 104.741 78.2178 240.507 143.436 337.779L134.791 345.888H69.0568C63.5428 345.888 59.0578 341.402 59.0578 335.888V79.9998H224.053C237.307 79.5078 237.297 60.4869 224.053 59.9999H59.0578V29.9999C59.0578 24.486 63.5428 20 69.0568 20H469.057C474.571 20 479.057 24.486 479.057 29.9999V59.9999H314.053C300.799 60.4919 300.809 79.5128 314.053 79.9998H479.057V335.888C479.057 341.402 474.57 345.888 469.057 345.888Z" fill="black"/>
<path d="M269.058 60H269.049C263.527 60 259.053 64.477 259.053 70C259.545 83.248 278.569 83.249 279.058 70C279.058 64.477 274.58 60 269.058 60ZM342.861 213.904L311.041 182.085C307.316 178.211 300.623 178.212 296.898 182.085L269.056 209.928L241.214 182.086C237.489 178.212 230.796 178.212 227.071 182.086L195.252 213.905C191.347 217.81 191.347 224.142 195.252 228.048L223.093 255.89L195.252 283.732C191.347 287.637 191.347 293.969 195.252 297.875L227.071 329.694C230.796 333.568 237.489 333.568 241.214 329.694L269.056 301.852L296.898 329.695C300.623 333.568 307.316 333.568 311.041 329.695L342.861 297.876C346.766 293.971 346.766 287.639 342.861 283.733L315.019 255.891L342.861 228.049C346.767 224.142 346.767 217.81 342.861 213.904ZM293.806 248.818C289.901 252.723 289.901 259.055 293.806 262.961L321.648 290.803L303.971 308.481L276.127 280.638C272.403 276.765 265.708 276.765 261.984 280.638L234.143 308.48L216.466 290.802L244.308 262.96C248.213 259.055 248.213 252.723 244.308 248.817L216.466 220.975L234.143 203.297L261.984 231.139C265.708 235.013 272.402 235.013 276.127 231.139L303.971 203.296L321.648 220.974L293.806 248.818Z" fill="black"/>
<g clip-path="url(#clip1_2019_36)">
<path d="M469.057 0H69.0568C52.5148 0 39.0579 13.458 39.0579 29.9999V335.888C39.0579 352.43 52.5148 365.888 69.0568 365.888H113.47L23.8519 449.956C16.9749 456.408 13.1019 465.262 12.9489 474.888C12.7919 484.747 16.6819 494.382 23.6239 501.324C30.5599 508.264 40.2119 512.157 50.0568 511.997C59.6848 511.844 68.5398 507.972 74.9918 501.095L187.169 381.512C241.682 419.186 324.121 411.708 370.938 365.889H469.059C485.601 365.889 499.059 352.431 499.059 335.889V29.9999C499.057 13.458 485.599 0 469.057 0ZM60.4038 487.41C57.6898 490.302 53.9018 491.931 49.7368 491.998C45.2748 492.069 40.8979 490.314 37.7649 487.181C34.6299 484.047 32.8729 479.682 32.9449 475.207C33.0119 471.044 34.6419 467.257 37.5349 464.543L126.182 381.387L143.56 398.765L60.4038 487.41ZM157.251 384.169L140.777 367.695L155.546 353.841C160.347 359.398 165.547 364.599 171.105 369.4L157.251 384.169ZM139.058 255.889C139.058 184.207 197.375 125.89 269.057 125.89C441.283 132.425 441.236 379.38 269.055 385.89C197.375 385.889 139.058 327.571 139.058 255.889ZM469.057 345.888H388.986C463.158 249.647 391.586 104.756 269.055 105.891C151.125 104.741 78.2178 240.507 143.436 337.779L134.791 345.888H69.0568C63.5428 345.888 59.0578 341.402 59.0578 335.888V79.9998H224.053C237.307 79.5078 237.297 60.4869 224.053 59.9999H59.0578V29.9999C59.0578 24.486 63.5428 20 69.0568 20H469.057C474.571 20 479.057 24.486 479.057 29.9999V59.9999H314.053C300.799 60.4919 300.809 79.5128 314.053 79.9998H479.057V335.888C479.057 341.402 474.57 345.888 469.057 345.888Z" fill="#1E73BE"/>
<path d="M269.058 60H269.049C263.527 60 259.053 64.477 259.053 70C259.545 83.248 278.569 83.249 279.058 70C279.058 64.477 274.58 60 269.058 60ZM342.861 213.904L311.041 182.085C307.316 178.211 300.623 178.212 296.898 182.085L269.056 209.928L241.214 182.086C237.489 178.212 230.796 178.212 227.071 182.086L195.252 213.905C191.347 217.81 191.347 224.142 195.252 228.048L223.093 255.89L195.252 283.732C191.347 287.637 191.347 293.969 195.252 297.875L227.071 329.694C230.796 333.568 237.489 333.568 241.214 329.694L269.056 301.852L296.898 329.695C300.623 333.568 307.316 333.568 311.041 329.695L342.861 297.876C346.766 293.971 346.766 287.639 342.861 283.733L315.019 255.891L342.861 228.049C346.767 224.142 346.767 217.81 342.861 213.904ZM293.806 248.818C289.901 252.723 289.901 259.055 293.806 262.961L321.648 290.803L303.971 308.481L276.127 280.638C272.403 276.765 265.708 276.765 261.984 280.638L234.143 308.48L216.466 290.802L244.308 262.96C248.213 259.055 248.213 252.723 244.308 248.817L216.466 220.975L234.143 203.297L261.984 231.139C265.708 235.013 272.402 235.013 276.127 231.139L303.971 203.296L321.648 220.974L293.806 248.818Z" fill="#1E73BE"/>
</g>
</g>
<defs>
<clipPath id="clip0_2019_36">
<rect width="512" height="512" fill="white"/>
</clipPath>
<clipPath id="clip1_2019_36">
<rect width="512" height="512" fill="white"/>
</clipPath>
</defs>
</svg>
