<svg width="52" height="52" viewBox="0 0 52 52" fill="none" xmlns="http://www.w3.org/2000/svg">
  <path d="M18.8 20.8L24 15.6C26.1 13.5 29.4 13.3 31.7 15.2L34.4 17.5H39.5" stroke="white" stroke-width="3" stroke-linecap="round" stroke-linejoin="round"/>
  <path d="M13 18H8.5V33H13L22.8 40.7C24.1 41.7 25.9 41.6 27 40.5L28.2 39.3" stroke="white" stroke-width="3" stroke-linecap="round" stroke-linejoin="round"/>
  <path d="M39 18H43.5V33H39L29.4 40.5" stroke="white" stroke-width="3" stroke-linecap="round" stroke-linejoin="round"/>
  <path d="M20.5 28L26.5 34C27.7 35.2 29.6 35.2 30.8 34L31.4 33.4L22.2 24.2" stroke="white" stroke-width="3" stroke-linecap="round" stroke-linejoin="round"/>
  <path d="M14 32L18.3 27.7M19.6 38L22.2 35.4M36.5 31L33.5 28" stroke="white" stroke-width="3" stroke-linecap="round" stroke-linejoin="round"/>
</svg>
