<svg width="512" height="512" viewBox="0 0 512 512" fill="none" xmlns="http://www.w3.org/2000/svg">
<path d="M312 79.96H328C330.122 79.96 332.157 79.1171 333.657 77.6168C335.157 76.1165 336 74.0817 336 71.96C336 69.8382 335.157 67.8034 333.657 66.3031C332.157 64.8028 330.122 63.96 328 63.96H312C309.878 63.96 307.843 64.8028 306.343 66.3031C304.843 67.8034 304 69.8382 304 71.96C304 74.0817 304.843 76.1165 306.343 77.6168C307.843 79.1171 309.878 79.96 312 79.96ZM360 79.96H376C378.122 79.96 380.157 79.1171 381.657 77.6168C383.157 76.1165 384 74.0817 384 71.96C384 69.8382 383.157 67.8034 381.657 66.3031C380.157 64.8028 378.122 63.96 376 63.96H360C357.878 63.96 355.843 64.8028 354.343 66.3031C352.843 67.8034 352 69.8382 352 71.96C352 74.0817 352.843 76.1165 354.343 77.6168C355.843 79.1171 357.878 79.96 360 79.96ZM408 79.96H424C426.122 79.96 428.157 79.1171 429.657 77.6168C431.157 76.1165 432 74.0817 432 71.96C432 69.8382 431.157 67.8034 429.657 66.3031C428.157 64.8028 426.122 63.96 424 63.96H408C405.878 63.96 403.843 64.8028 402.343 66.3031C400.843 67.8034 400 69.8382 400 71.96C400 74.0817 400.843 76.1165 402.343 77.6168C403.843 79.1171 405.878 79.96 408 79.96ZM456 79.96H472C474.122 79.96 476.157 79.1171 477.657 77.6168C479.157 76.1165 480 74.0817 480 71.96C480 69.8382 479.157 67.8034 477.657 66.3031C476.157 64.8028 474.122 63.96 472 63.96H456C453.878 63.96 451.843 64.8028 450.343 66.3031C448.843 67.8034 448 69.8382 448 71.96C448 74.0817 448.843 76.1165 450.343 77.6168C451.843 79.1171 453.878 79.96 456 79.96ZM312 111.964H328C330.122 111.964 332.157 111.121 333.657 109.621C335.157 108.121 336 106.086 336 103.964C336 101.842 335.157 99.8074 333.657 98.3071C332.157 96.8068 330.122 95.964 328 95.964H312C309.878 95.964 307.843 96.8068 306.343 98.3071C304.843 99.8074 304 101.842 304 103.964C304 106.086 304.843 108.121 306.343 109.621C307.843 111.121 309.878 111.964 312 111.964ZM360 111.964H376C378.122 111.964 380.157 111.121 381.657 109.621C383.157 108.121 384 106.086 384 103.964C384 101.842 383.157 99.8074 381.657 98.3071C380.157 96.8068 378.122 95.964 376 95.964H360C357.878 95.964 355.843 96.8068 354.343 98.3071C352.843 99.8074 352 101.842 352 103.964C352 106.086 352.843 108.121 354.343 109.621C355.843 111.121 357.878 111.964 360 111.964ZM408 111.964H424C426.122 111.964 428.157 111.121 429.657 109.621C431.157 108.121 432 106.086 432 103.964C432 101.842 431.157 99.8074 429.657 98.3071C428.157 96.8068 426.122 95.964 424 95.964H408C405.878 95.964 403.843 96.8068 402.343 98.3071C400.843 99.8074 400 101.842 400 103.964C400 106.086 400.843 108.121 402.343 109.621C403.843 111.121 405.878 111.964 408 111.964ZM456 111.964H472C474.122 111.964 476.157 111.121 477.657 109.621C479.157 108.121 480 106.086 480 103.964C480 101.842 479.157 99.8074 477.657 98.3071C476.157 96.8068 474.122 95.964 472 95.964H456C453.878 95.964 451.843 96.8068 450.343 98.3071C448.843 99.8074 448 101.842 448 103.964C448 106.086 448.843 108.121 450.343 109.621C451.843 111.121 453.878 111.964 456 111.964ZM312 143.968H328C330.122 143.968 332.157 143.125 333.657 141.625C335.157 140.125 336 138.09 336 135.968C336 133.846 335.157 131.811 333.657 130.311C332.157 128.811 330.122 127.968 328 127.968H312C309.878 127.968 307.843 128.811 306.343 130.311C304.843 131.811 304 133.846 304 135.968C304 138.09 304.843 140.125 306.343 141.625C307.843 143.125 309.878 143.968 312 143.968ZM360 143.968H376C378.122 143.968 380.157 143.125 381.657 141.625C383.157 140.125 384 138.09 384 135.968C384 133.846 383.157 131.811 381.657 130.311C380.157 128.811 378.122 127.968 376 127.968H360C357.878 127.968 355.843 128.811 354.343 130.311C352.843 131.811 352 133.846 352 135.968C352 138.09 352.843 140.125 354.343 141.625C355.843 143.125 357.878 143.968 360 143.968ZM408 143.968H424C426.122 143.968 428.157 143.125 429.657 141.625C431.157 140.125 432 138.09 432 135.968C432 133.846 431.157 131.811 429.657 130.311C428.157 128.811 426.122 127.968 424 127.968H408C405.878 127.968 403.843 128.811 402.343 130.311C400.843 131.811 400 133.846 400 135.968C400 138.09 400.843 140.125 402.343 141.625C403.843 143.125 405.878 143.968 408 143.968ZM456 143.968H472C474.122 143.968 476.157 143.125 477.657 141.625C479.157 140.125 480 138.09 480 135.968C480 133.846 479.157 131.811 477.657 130.311C476.157 128.811 474.122 127.968 472 127.968H456C453.878 127.968 451.843 128.811 450.343 130.311C448.843 131.811 448 133.846 448 135.968C448 138.09 448.843 140.125 450.343 141.625C451.843 143.125 453.878 143.968 456 143.968ZM312 175.972H328C330.122 175.972 332.157 175.129 333.657 173.629C335.157 172.129 336 170.094 336 167.972C336 165.85 335.157 163.815 333.657 162.315C332.157 160.815 330.122 159.972 328 159.972H312C309.878 159.972 307.843 160.815 306.343 162.315C304.843 163.815 304 165.85 304 167.972C304 170.094 304.843 172.129 306.343 173.629C307.843 175.129 309.878 175.972 312 175.972ZM360 175.972H376C378.122 175.972 380.157 175.129 381.657 173.629C383.157 172.129 384 170.094 384 167.972C384 165.85 383.157 163.815 381.657 162.315C380.157 160.815 378.122 159.972 376 159.972H360C357.878 159.972 355.843 160.815 354.343 162.315C352.843 163.815 352 165.85 352 167.972C352 170.094 352.843 172.129 354.343 173.629C355.843 175.129 357.878 175.972 360 175.972ZM408 175.972H424C426.122 175.972 428.157 175.129 429.657 173.629C431.157 172.129 432 170.094 432 167.972C432 165.85 431.157 163.815 429.657 162.315C428.157 160.815 426.122 159.972 424 159.972H408C405.878 159.972 403.843 160.815 402.343 162.315C400.843 163.815 400 165.85 400 167.972C400 170.094 400.843 172.129 402.343 173.629C403.843 175.129 405.878 175.972 408 175.972ZM456 175.972H472C474.122 175.972 476.157 175.129 477.657 173.629C479.157 172.129 480 170.094 480 167.972C480 165.85 479.157 163.815 477.657 162.315C476.157 160.815 474.122 159.972 472 159.972H456C453.878 159.972 451.843 160.815 450.343 162.315C448.843 163.815 448 165.85 448 167.972C448 170.094 448.843 172.129 450.343 173.629C451.843 175.129 453.878 175.972 456 175.972ZM312 207.972H328C330.122 207.972 332.157 207.129 333.657 205.629C335.157 204.129 336 202.094 336 199.972C336 197.85 335.157 195.815 333.657 194.315C332.157 192.815 330.122 191.972 328 191.972H312C309.878 191.972 307.843 192.815 306.343 194.315C304.843 195.815 304 197.85 304 199.972C304 202.094 304.843 204.129 306.343 205.629C307.843 207.129 309.878 207.972 312 207.972ZM360 207.972H376C378.122 207.972 380.157 207.129 381.657 205.629C383.157 204.129 384 202.094 384 199.972C384 197.85 383.157 195.815 381.657 194.315C380.157 192.815 378.122 191.972 376 191.972H360C357.878 191.972 355.843 192.815 354.343 194.315C352.843 195.815 352 197.85 352 199.972C352 202.094 352.843 204.129 354.343 205.629C355.843 207.129 357.878 207.972 360 207.972ZM408 207.972H424C426.122 207.972 428.157 207.129 429.657 205.629C431.157 204.129 432 202.094 432 199.972C432 197.85 431.157 195.815 429.657 194.315C428.157 192.815 426.122 191.972 424 191.972H408C405.878 191.972 403.843 192.815 402.343 194.315C400.843 195.815 400 197.85 400 199.972C400 202.094 400.843 204.129 402.343 205.629C403.843 207.129 405.878 207.972 408 207.972ZM456 207.972H472C474.122 207.972 476.157 207.129 477.657 205.629C479.157 204.129 480 202.094 480 199.972C480 197.85 479.157 195.815 477.657 194.315C476.157 192.815 474.122 191.972 472 191.972H456C453.878 191.972 451.843 192.815 450.343 194.315C448.843 195.815 448 197.85 448 199.972C448 202.094 448.843 204.129 450.343 205.629C451.843 207.129 453.878 207.972 456 207.972ZM312 239.976H328C330.122 239.976 332.157 239.133 333.657 237.633C335.157 236.133 336 234.098 336 231.976C336 229.854 335.157 227.819 333.657 226.319C332.157 224.819 330.122 223.976 328 223.976H312C309.878 223.976 307.843 224.819 306.343 226.319C304.843 227.819 304 229.854 304 231.976C304 234.098 304.843 236.133 306.343 237.633C307.843 239.133 309.878 239.976 312 239.976ZM360 239.976H376C378.122 239.976 380.157 239.133 381.657 237.633C383.157 236.133 384 234.098 384 231.976C384 229.854 383.157 227.819 381.657 226.319C380.157 224.819 378.122 223.976 376 223.976H360C357.878 223.976 355.843 224.819 354.343 226.319C352.843 227.819 352 229.854 352 231.976C352 234.098 352.843 236.133 354.343 237.633C355.843 239.133 357.878 239.976 360 239.976ZM408 239.976H424C426.122 239.976 428.157 239.133 429.657 237.633C431.157 236.133 432 234.098 432 231.976C432 229.854 431.157 227.819 429.657 226.319C428.157 224.819 426.122 223.976 424 223.976H408C405.878 223.976 403.843 224.819 402.343 226.319C400.843 227.819 400 229.854 400 231.976C400 234.098 400.843 236.133 402.343 237.633C403.843 239.133 405.878 239.976 408 239.976ZM456 239.976H472C474.122 239.976 476.157 239.133 477.657 237.633C479.157 236.133 480 234.098 480 231.976C480 229.854 479.157 227.819 477.657 226.319C476.157 224.819 474.122 223.976 472 223.976H456C453.878 223.976 451.843 224.819 450.343 226.319C448.843 227.819 448 229.854 448 231.976C448 234.098 448.843 236.133 450.343 237.633C451.843 239.133 453.878 239.976 456 239.976ZM408 271.98H424C426.122 271.98 428.157 271.137 429.657 269.637C431.157 268.137 432 266.102 432 263.98C432 261.858 431.157 259.823 429.657 258.323C428.157 256.823 426.122 255.98 424 255.98H408C405.878 255.98 403.843 256.823 402.343 258.323C400.843 259.823 400 261.858 400 263.98C400 266.102 400.843 268.137 402.343 269.637C403.843 271.137 405.878 271.98 408 271.98ZM456 271.98H472C474.122 271.98 476.157 271.137 477.657 269.637C479.157 268.137 480 266.102 480 263.98C480 261.858 479.157 259.823 477.657 258.323C476.157 256.823 474.122 255.98 472 255.98H456C453.878 255.98 451.843 256.823 450.343 258.323C448.843 259.823 448 261.858 448 263.98C448 266.102 448.843 268.137 450.343 269.637C451.843 271.137 453.878 271.98 456 271.98ZM376 255.976H360C358.831 255.979 357.677 256.241 356.621 256.741C355.564 257.242 354.631 257.969 353.888 258.872L382.424 268.704C383.308 267.517 383.845 266.107 383.972 264.632C384.1 263.157 383.814 261.675 383.147 260.354C382.48 259.032 381.458 257.922 380.196 257.149C378.933 256.376 377.48 255.97 376 255.976ZM472 287.98H456C454.648 287.982 453.319 288.327 452.137 288.983C450.955 289.639 449.96 290.585 449.244 291.732L477.732 301.548C478.831 300.422 479.573 298.997 479.865 297.452C480.157 295.906 479.987 294.308 479.374 292.859C478.762 291.41 477.736 290.174 476.424 289.306C475.112 288.438 473.573 287.977 472 287.98Z" fill="#1E73BE"/>
<path d="M504.852 35.9996L280.812 11.9996C278.696 11.8557 276.599 12.4885 274.916 13.7796L226.916 53.2756C226.004 54.0264 225.269 54.97 224.765 56.0386C224.261 57.1071 224 58.2741 224 59.4556V103.06L120.808 92.0076C118.693 91.8571 116.596 92.4892 114.916 93.7836L66.916 133.284C66.0038 134.034 65.2691 134.978 64.765 136.047C64.2608 137.115 63.9995 138.282 64 139.464V230.12L80 217.892V143.24L112 116.908V193.44L117.928 188.908C120.891 186.65 124.34 185.115 128 184.424V108.864L224 119.156V214.116L240 219.628V63.2316L272 36.8996V230.656L288 236.168V28.8596L496 51.1476V307.84L511.816 313.292C511.88 313.312 511.936 313.344 512 313.372V43.9596C512.001 41.9844 511.272 40.0786 509.952 38.609C508.633 37.1394 506.816 36.2099 504.852 35.9996Z" fill="#1E73BE"/>
<path d="M506.604 328.42L135.108 200.408C133.861 199.978 132.527 199.863 131.224 200.073C129.922 200.284 128.692 200.814 127.644 201.616L3.144 296.784C2.16612 297.531 1.37371 298.493 0.828419 299.596C0.283123 300.699 -0.0003665 301.913 3.55599e-07 303.144V492C3.55599e-07 494.122 0.842855 496.156 2.34315 497.657C3.84344 499.157 5.87827 500 8 500C10.1217 500 12.1566 499.157 13.6569 497.657C15.1571 496.156 16 494.122 16 492V363.1L124 280.548V492C124 494.122 124.843 496.156 126.343 497.657C127.843 499.157 129.878 500 132 500C134.122 500 136.157 499.157 137.657 497.657C139.157 496.156 140 494.122 140 492V275.024L496 397.696V424.776L432.544 402.908C430.537 402.217 428.339 402.352 426.431 403.283C424.524 404.213 423.065 405.863 422.374 407.87C421.683 409.877 421.818 412.075 422.749 413.983C423.679 415.89 425.329 417.349 427.336 418.04L496 441.7V464.78L432.544 442.912C430.537 442.221 428.339 442.356 426.431 443.287C424.524 444.217 423.065 445.867 422.374 447.874C421.683 449.881 421.818 452.079 422.749 453.987C423.679 455.894 425.329 457.353 427.336 458.044L496 481.704V492C496 494.122 496.843 496.156 498.343 497.657C499.843 499.157 501.878 500 504 500C506.122 500 508.157 499.157 509.657 497.657C511.157 496.156 512 494.122 512 492V335.984C512 334.318 511.48 332.694 510.513 331.338C509.545 329.982 508.179 328.962 506.604 328.42ZM496 380.772L135.108 256.412C134.275 256.143 133.403 256.015 132.528 256.032C132.348 256.02 132.18 255.976 132 255.976C130.775 255.979 129.568 256.265 128.472 256.811C127.376 257.357 126.42 258.148 125.68 259.124L16 342.96V307.092L133.952 216.932L496 341.692V380.772Z" fill="#1E73BE"/>
<path d="M284 423.992C286.122 423.992 288.157 423.149 289.657 421.648C291.157 420.148 292 418.113 292 415.992V371.992C292.001 370.311 291.473 368.673 290.491 367.31C289.509 365.946 288.122 364.927 286.528 364.396L166.528 324.396C165.326 323.995 164.045 323.886 162.793 324.077C161.54 324.269 160.351 324.755 159.322 325.496C158.294 326.237 157.457 327.211 156.879 328.339C156.302 329.467 156 330.716 156 331.984V415.992C156 418.113 156.843 420.148 158.343 421.648C159.843 423.149 161.878 423.992 164 423.992H284ZM232 363.088L276 377.756V407.992H232V363.088ZM172 343.088L216 357.752V407.992H172V343.088ZM92.0001 407.992C92.0001 410.113 92.8429 412.148 94.3432 413.648C95.8435 415.149 97.8783 415.992 100 415.992C102.122 415.992 104.157 415.149 105.657 413.648C107.157 412.148 108 410.113 108 407.992V327.984C107.999 326.493 107.582 325.032 106.796 323.766C106.009 322.5 104.885 321.479 103.549 320.818C102.213 320.156 100.719 319.882 99.2358 320.024C97.7521 320.166 96.3377 320.72 95.1521 321.624L34.8121 367.624C33.8325 368.37 33.0386 369.333 32.4926 370.437C31.9465 371.541 31.6629 372.756 31.6641 373.988V492C31.6641 494.121 32.5069 496.156 34.0072 497.656C35.5075 499.157 37.5423 500 39.6641 500C41.7858 500 43.8206 499.157 45.3209 497.656C46.8212 496.156 47.6641 494.121 47.6641 492V377.948L92.0001 344.144V407.992Z" fill="#1E73BE"/>
</svg>
