<svg width="512" height="512" viewBox="0 0 512 512" fill="none" xmlns="http://www.w3.org/2000/svg">
<path d="M117.776 174.344C113.876 170.444 107.536 170.444 103.637 174.344C99.727 178.254 99.727 184.584 103.637 188.484C107.537 192.394 113.877 192.394 117.776 188.484C121.685 184.584 121.685 178.254 117.776 174.344ZM253.199 447.717C257.608 441.745 259.991 434.55 259.991 426.985C259.991 407.687 244.291 391.986 224.992 391.986H54.998C45.645 391.986 36.856 395.626 30.249 402.235C23.639 408.843 19.999 417.632 19.999 426.985C19.9923 434.443 22.3813 441.707 26.814 447.705C10.891 456.077 0 472.777 0 491.982V501.982C0 507.505 4.478 511.982 10 511.982H269.99C275.512 511.982 279.99 507.505 279.99 501.982V491.982C279.99 472.786 269.11 456.093 253.199 447.717ZM44.39 416.375C45.7799 414.978 47.4332 413.87 49.2541 413.117C51.075 412.363 53.0273 411.978 54.998 411.984H224.992C233.263 411.984 239.991 418.713 239.991 426.983C239.991 430.993 238.431 434.76 235.599 437.592C234.209 438.989 232.556 440.096 230.735 440.85C228.914 441.604 226.962 441.989 224.991 441.983H54.998C46.727 441.983 39.999 435.254 39.999 426.984C39.999 422.975 41.558 419.207 44.39 416.375ZM19.999 491.982C19.999 475.441 33.457 461.983 49.998 461.983H229.992C246.533 461.983 259.991 475.441 259.991 491.982H19.999Z" fill="#1E73BE"/>
<path d="M502.693 420.123C499.297 414.86 495.245 410.206 490.648 406.29L443.923 365.537C443.553 364.979 443.128 364.46 442.654 363.986C441.864 363.2 440.948 362.551 439.944 362.068L411.687 337.423L280.897 223.332C286.251 217.735 289.199 210.416 289.199 202.633C289.199 194.615 286.078 187.08 280.405 181.408C277.996 179.001 275.192 177.027 272.114 175.571L284.214 163.471C287.586 164.37 291.06 164.827 294.549 164.83C304.79 164.829 315.032 160.931 322.828 153.135C330.386 145.578 334.548 135.533 334.548 124.85C334.548 114.167 330.386 104.122 322.829 96.565L237.981 11.719C230.424 4.162 220.378 0 209.692 0C199.011 0 188.968 4.162 181.412 11.719C170.968 22.163 167.53 36.992 171.076 50.334L50.351 171.058C46.9735 170.159 43.4932 169.703 39.998 169.703C29.31 169.703 19.269 173.862 11.718 181.412C-3.878 197.008 -3.878 222.385 11.718 237.982L96.565 322.83C104.364 330.628 114.607 334.527 124.85 334.527C135.094 334.527 145.337 330.628 153.136 322.83C163.58 312.385 167.018 297.557 163.472 284.215L175.547 272.139C177.019 275.209 179.003 278.006 181.413 280.41C187.079 286.076 194.612 289.197 202.628 289.197C210.403 289.197 217.719 286.254 223.324 280.906L362.63 440.96C363.014 441.56 363.462 442.131 363.986 442.655C364.165 442.834 364.355 442.997 364.544 443.159L406.055 490.853C407.099 492.084 408.193 493.272 409.335 494.414C420.736 505.811 435.795 511.996 451.605 511.996C454.392 511.996 457.205 511.804 460.022 511.414C478.851 508.808 495.124 497.544 504.666 480.506C515.119 461.833 514.341 438.126 502.693 420.123ZM195.555 25.861C197.407 23.9979 199.61 22.5206 202.037 21.5145C204.464 20.5085 207.066 19.9937 209.693 20C212.321 19.9929 214.925 20.5073 217.354 21.5133C219.782 22.5194 221.987 23.9971 223.84 25.861L308.688 110.708C310.551 112.561 312.029 114.765 313.035 117.193C314.04 119.62 314.555 122.223 314.548 124.851C314.555 127.479 314.04 130.082 313.034 132.51C312.028 134.937 310.551 137.141 308.687 138.994C300.892 146.791 288.206 146.791 280.411 138.994L195.56 54.143L195.555 54.138C187.758 46.342 187.758 33.657 195.555 25.861ZM138.994 308.688C131.196 316.486 118.505 316.487 110.707 308.688L25.86 223.841C18.061 216.042 18.061 203.354 25.86 195.554C29.632 191.781 34.654 189.703 39.998 189.703C45.341 189.703 50.36 191.78 54.131 195.55L138.993 280.412C146.791 288.207 146.791 300.893 138.994 308.688ZM181.096 238.308L153.135 266.27L68.279 181.414L181.412 68.279L266.267 153.135L238.255 181.148C238.164 181.234 238.075 181.318 237.979 181.413L181.441 237.952C181.324 238.067 181.211 238.187 181.096 238.308ZM216.802 259.169L216.743 259.228L209.701 266.27C208.774 267.201 207.671 267.94 206.457 268.442C205.243 268.945 203.941 269.202 202.627 269.198C201.313 269.202 200.011 268.945 198.797 268.442C197.583 267.939 196.481 267.201 195.554 266.269C194.621 265.342 193.882 264.238 193.379 263.023C192.875 261.808 192.618 260.505 192.622 259.19C192.622 256.572 193.621 254.109 195.434 252.251L252.235 195.45C256.128 191.664 262.422 191.711 266.269 195.554C267.201 196.482 267.94 197.585 268.444 198.8C268.947 200.015 269.204 201.318 269.2 202.633C269.204 203.947 268.947 205.248 268.444 206.462C267.941 207.676 267.201 208.777 266.268 209.702L259.267 216.703C259.219 216.75 259.171 216.798 259.124 216.846L216.802 259.169ZM237.51 266.744L266.736 237.518L390.478 345.453L345.324 390.608L237.51 266.744ZM358.485 405.73L405.584 358.63L420.691 371.807L371.646 420.853L358.485 405.73ZM487.217 470.736C480.763 482.259 469.852 489.864 457.281 491.604C444.739 493.34 432.416 489.209 423.474 480.271C422.711 479.508 421.98 478.714 421.283 477.89L421.186 477.777L384.806 435.975L435.797 384.983L477.547 421.4L477.643 421.483C480.768 424.14 483.541 427.331 485.894 430.977C493.456 442.662 493.986 458.642 487.217 470.736Z" fill="#1E73BE"/>
<path d="M188.484 103.635C184.578 99.7298 178.248 99.7298 174.342 103.635L131.914 146.063C128.009 149.968 128.009 156.3 131.914 160.204C132.842 161.134 133.944 161.871 135.157 162.374C136.371 162.877 137.672 163.135 138.985 163.133C140.299 163.134 141.599 162.876 142.813 162.374C144.026 161.871 145.128 161.134 146.056 160.204L188.484 117.776C192.389 113.872 192.389 107.541 188.484 103.635Z" fill="#1E73BE"/>
</svg>
