<svg width="512" height="512" viewBox="0 0 512 512" fill="none" xmlns="http://www.w3.org/2000/svg">
<g clip-path="url(#clip0_2019_53)">
<path d="M404.641 317.166C394.159 306.251 381.516 300.416 368.117 300.416C354.825 300.416 342.074 306.143 331.16 317.058L297.012 351.097C294.203 349.584 291.393 348.179 288.692 346.774C284.802 344.829 281.128 342.992 277.994 341.047C246.008 320.732 216.939 294.257 189.059 260.001C175.552 242.928 166.475 228.556 159.883 213.967C168.744 205.863 176.957 197.434 184.953 189.329C187.979 186.304 191.005 183.17 194.03 180.144C216.723 157.451 216.723 128.059 194.03 105.366L164.53 75.8652C161.18 72.5153 157.722 69.0573 154.48 65.5994C147.996 58.8996 141.188 51.9837 134.164 45.5C123.682 35.1261 111.147 29.615 97.9639 29.615C84.7805 29.615 72.0292 35.1261 61.2231 45.5L61.007 45.7161L24.2662 82.7811C10.4344 96.6129 2.54595 113.47 0.81697 133.03C-1.7765 164.583 7.51676 193.976 14.6488 213.211C32.1547 260.434 58.3055 304.198 97.3155 351.097C144.646 407.613 201.595 452.242 266.647 483.688C291.501 495.466 324.676 509.406 361.741 511.784C364.01 511.892 366.388 512 368.549 512C393.511 512 414.475 503.031 430.9 485.201C431.008 484.985 431.224 484.877 431.332 484.66C436.952 477.853 443.435 471.693 450.243 465.101C454.89 460.671 459.644 456.024 464.291 451.161C474.989 440.031 480.608 427.064 480.608 413.772C480.608 400.373 474.881 387.513 463.967 376.707L404.641 317.166ZM443.327 430.954C443.219 431.062 443.219 430.954 443.327 430.954C439.113 435.493 434.79 439.599 430.144 444.137C423.12 450.837 415.988 457.861 409.288 465.75C398.374 477.42 385.515 482.931 368.657 482.931C367.036 482.931 365.307 482.931 363.686 482.823C331.592 480.77 301.767 468.235 279.399 457.537C218.236 427.928 164.53 385.893 119.9 332.618C83.0515 288.205 58.4135 247.142 42.0963 203.053C32.0466 176.146 28.3726 155.182 29.9935 135.407C31.0741 122.764 35.9368 112.282 44.9059 103.313L81.7547 66.4639C87.0497 61.4931 92.6689 58.7915 98.18 58.7915C104.988 58.7915 110.499 62.8978 113.957 66.3558L114.281 66.68C120.873 72.8395 127.14 79.2151 133.732 86.0229C137.082 89.4809 140.54 92.9388 143.998 96.5049L173.499 126.006C184.953 137.46 184.953 148.05 173.499 159.504C170.365 162.638 167.339 165.772 164.205 168.798C155.128 178.091 146.483 186.736 137.082 195.165C136.866 195.381 136.65 195.489 136.542 195.705C127.248 204.998 128.977 214.075 130.923 220.235L131.247 221.207C138.919 239.794 149.725 257.3 166.15 278.156L166.259 278.264C196.083 315.004 227.529 343.641 262.217 365.577C266.647 368.387 271.186 370.656 275.508 372.817C279.399 374.762 283.073 376.599 286.206 378.544C286.639 378.76 287.071 379.085 287.503 379.301C291.177 381.138 294.635 382.002 298.201 382.002C307.17 382.002 312.789 376.383 314.626 374.546L351.583 337.589C355.257 333.915 361.093 329.485 367.901 329.485C374.6 329.485 380.111 333.699 383.461 337.373L383.677 337.589L443.219 397.131C454.349 408.153 454.349 419.5 443.327 430.954ZM276.697 121.791C305.009 126.546 330.728 139.945 351.259 160.477C371.791 181.009 385.082 206.727 389.945 235.039C391.134 242.171 397.293 247.142 404.317 247.142C405.182 247.142 405.938 247.034 406.803 246.926C414.799 245.629 420.094 238.065 418.797 230.068C412.962 195.813 396.753 164.583 372.007 139.837C347.261 115.091 316.031 98.8822 281.776 93.0469C273.779 91.7502 266.323 97.0452 264.918 104.934C263.514 112.822 268.7 120.494 276.697 121.791ZM511.406 225.854C501.788 169.446 475.205 118.117 434.358 77.27C393.511 36.4229 342.182 9.83984 285.774 0.222406C277.886 -1.18239 270.429 4.22067 269.025 12.1091C267.728 20.1057 273.023 27.5619 281.019 28.9667C331.376 37.5035 377.302 61.385 413.827 97.8016C450.351 134.326 474.125 180.252 482.661 230.609C483.85 237.741 490.01 242.712 497.034 242.712C497.898 242.712 498.655 242.603 499.519 242.495C507.407 241.307 512.811 233.742 511.406 225.854Z" fill="#1E73BE"/>
</g>
<defs>
<clipPath id="clip0_2019_53">
<rect width="512" height="512" fill="white"/>
</clipPath>
</defs>
</svg>
