<svg width="512" height="512" viewBox="0 0 512 512" fill="none" xmlns="http://www.w3.org/2000/svg">
<g clip-path="url(#clip0_2019_61)">
<path d="M45.0133 97.8856C47.6903 100.113 50.9182 101.578 54.3574 102.127C57.7966 102.675 61.3201 102.287 64.5572 101.002C67.7943 99.7179 70.6255 97.5847 72.7529 94.8273C74.8802 92.0699 76.2253 88.7901 76.6464 85.333H307.2C313.99 85.333 320.501 82.6359 325.302 77.835C330.103 73.034 332.8 66.5226 332.8 59.733V42.6664C332.8 35.8768 330.103 29.3653 325.302 24.5644C320.501 19.7635 313.99 17.0664 307.2 17.0664H76.6464C76.2256 13.61 74.8814 10.3309 72.755 7.57379C70.6287 4.81664 67.7988 2.68328 64.5629 1.39799C61.327 0.112705 57.8046 -0.277031 54.3659 0.269757C50.9273 0.816546 47.6995 2.27966 45.0219 4.50528L6.89492 36.2578C4.72454 38.1058 2.98276 40.4044 1.79071 42.9938C0.598661 45.5831 -0.0150495 48.4011 -0.00774034 51.2516C-0.000431236 54.1022 0.627722 56.9169 1.83304 59.5001C3.03835 62.0833 4.7919 64.373 6.97172 66.2098L45.0133 97.8856ZM17.92 49.3053L55.9531 17.6125C56.3489 17.2683 56.8536 17.0749 57.3781 17.0664C57.728 17.0664 58.0779 17.1517 58.3936 17.2967C59.2299 17.6466 59.7589 18.4829 59.7333 19.3874V25.5997C59.7333 27.8629 60.6324 30.0334 62.2327 31.6337C63.833 33.234 66.0035 34.133 68.2667 34.133H307.2C309.463 34.133 311.634 35.0321 313.234 36.6324C314.834 38.2327 315.733 40.4032 315.733 42.6664V59.733C315.733 61.9962 314.834 64.1667 313.234 65.767C311.634 67.3673 309.463 68.2664 307.2 68.2664H68.2667C66.0035 68.2664 63.833 69.1654 62.2327 70.7657C60.6324 72.366 59.7333 74.5365 59.7333 76.7997V83.012C59.75 83.4533 59.6326 83.8893 59.3965 84.2626C59.1603 84.6358 58.8166 84.9287 58.4107 85.1026C58.0155 85.2941 57.5728 85.3654 57.1375 85.3078C56.7022 85.2502 56.2933 85.0661 55.9616 84.7784L17.9797 53.1538C17.6945 52.9142 17.465 52.6151 17.3073 52.2776C17.1496 51.9401 17.0675 51.5722 17.0667 51.1997C17.0667 50.4744 17.3739 49.7832 17.92 49.3053ZM466.987 89.8472C464.31 87.6194 461.082 86.1543 457.643 85.6058C454.203 85.0573 450.68 85.4458 447.443 86.7303C444.206 88.0148 441.375 90.148 439.247 92.9054C437.12 95.6628 435.775 98.9426 435.354 102.4H204.8C198.01 102.4 191.499 105.097 186.698 109.898C181.897 114.699 179.2 121.21 179.2 128V145.066C179.2 151.856 181.897 158.367 186.698 163.168C191.499 167.969 198.01 170.666 204.8 170.666H435.354C435.761 174.13 437.098 177.419 439.222 180.185C441.346 182.951 444.179 185.091 447.42 186.378C450.661 187.666 454.19 188.052 457.633 187.498C461.076 186.943 464.305 185.468 466.978 183.227L505.105 151.475C507.275 149.627 509.017 147.328 510.209 144.739C511.401 142.15 512.015 139.332 512.008 136.481C512 133.631 511.372 130.816 510.167 128.233C508.962 125.649 507.208 123.36 505.028 121.523L466.987 89.8472ZM494.08 138.427L456.03 170.12C455.694 170.4 455.285 170.577 454.852 170.632C454.418 170.688 453.978 170.618 453.583 170.431C453.188 170.245 452.854 169.95 452.621 169.58C452.388 169.211 452.265 168.782 452.267 168.345V162.133C452.267 159.87 451.368 157.699 449.767 156.099C448.167 154.499 445.997 153.6 443.733 153.6H204.8C202.537 153.6 200.366 152.701 198.766 151.1C197.166 149.5 196.267 147.33 196.267 145.066V128C196.267 125.737 197.166 123.566 198.766 121.966C200.366 120.365 202.537 119.466 204.8 119.466H443.733C445.997 119.466 448.167 118.567 449.767 116.967C451.368 115.367 452.267 113.196 452.267 110.933V104.721C452.25 104.279 452.367 103.843 452.604 103.47C452.84 103.097 453.183 102.804 453.589 102.63C453.983 102.434 454.427 102.36 454.863 102.418C455.3 102.476 455.709 102.663 456.038 102.954L494.003 134.579C494.292 134.817 494.524 135.115 494.685 135.453C494.846 135.79 494.93 136.159 494.933 136.533C494.936 136.892 494.861 137.246 494.714 137.573C494.566 137.9 494.35 138.192 494.08 138.427ZM494.933 230.4L450.432 230.468C445.304 230.453 440.309 232.101 436.198 235.166C432.087 238.231 429.081 242.547 427.631 247.466H400.555C396.608 247.481 392.713 246.563 389.188 244.787L343.305 221.798C332.07 216.241 319.704 213.35 307.17 213.35C294.636 213.35 282.271 216.241 271.036 221.798L268.791 222.925L266.505 221.764C255.268 216.211 242.904 213.323 230.37 213.323C217.837 213.323 205.472 216.211 194.236 221.764L148.369 244.744C144.862 246.536 140.979 247.466 137.045 247.466H84.3691C82.9203 242.55 79.9167 238.236 75.8089 235.172C71.701 232.107 66.7102 230.456 61.5851 230.468L17.0667 230.4C12.5403 230.4 8.19932 232.198 4.9987 235.398C1.79808 238.599 -1.19538e-05 242.94 -1.19538e-05 247.466V384C-1.19538e-05 388.526 1.79808 392.867 4.9987 396.068C8.19932 399.268 12.5403 401.066 17.0667 401.066L59.8955 401.135L85.4955 411.801C85.3016 417.292 86.5733 422.735 89.1798 427.572C91.7863 432.409 95.6336 436.464 100.326 439.321C103.782 441.39 107.615 442.749 111.602 443.319C115.589 443.889 119.649 443.658 123.546 442.641C123.767 442.581 123.972 442.47 124.194 442.402C126.029 450.594 131.132 457.677 138.317 462.029C141.773 464.091 145.606 465.443 149.592 466.006C153.577 466.568 157.635 466.33 161.527 465.305C161.749 465.246 161.946 465.135 162.167 465.075C163.085 469.134 164.814 472.965 167.252 476.338C169.689 479.711 172.784 482.556 176.35 484.702C183.305 488.883 191.659 490.086 199.509 488.021C199.706 487.97 199.885 487.867 200.081 487.816C200.973 491.812 202.665 495.585 205.055 498.909C207.446 502.232 210.486 505.037 213.99 507.153L214.11 507.221L214.349 507.375C217.794 509.449 221.62 510.813 225.6 511.384C229.581 511.956 233.636 511.724 237.525 510.703C243.147 509.246 248.227 506.194 252.151 501.913L257.126 505.779C260.271 508.208 263.869 509.986 267.71 511.007C271.55 512.028 275.556 512.273 279.492 511.727C283.422 511.212 287.21 509.916 290.63 507.914C294.051 505.912 297.036 503.245 299.409 500.07C304.341 493.542 306.432 485.307 305.212 477.218L305.587 477.175C309.508 476.678 313.29 475.4 316.71 473.417C320.129 471.434 323.116 468.786 325.495 465.63C329.558 460.362 331.766 453.9 331.776 447.249C333.713 447.368 335.659 447.291 337.579 447.035C341.492 446.536 345.266 445.257 348.678 443.276C352.09 441.294 355.071 438.65 357.444 435.498C361.549 430.208 363.776 423.705 363.776 417.007C363.776 413.593 363.221 410.206 362.121 406.98C366.319 405.895 370.216 403.873 373.521 401.066L450.321 401.135H450.372L494.933 401.066C499.46 401.066 503.801 399.268 507.001 396.068C510.202 392.867 512 388.526 512 384V247.466C512 242.94 510.202 238.599 507.001 235.398C503.801 232.198 499.46 230.4 494.933 230.4ZM335.727 237.09L381.508 260.027C387.418 262.996 393.941 264.539 400.555 264.533H427.571L440.858 384.051L383.334 384C383.942 381.242 384.166 378.413 384 375.594C383.518 370.573 381.976 365.711 379.475 361.331C376.975 356.95 373.572 353.15 369.493 350.182L283.307 289.903C278.055 286.141 271.572 284.511 265.165 285.343C258.759 286.174 252.907 289.405 248.789 294.383L209.161 341.777C205.625 345.975 200.587 348.624 195.125 349.158C189.662 349.692 184.207 348.069 179.925 344.635C178.223 343.283 177.109 341.324 176.817 339.17C176.524 337.015 177.075 334.831 178.355 333.073L217.702 276.847C224.22 267.539 232.954 260.002 243.115 254.916L278.639 237.115C287.512 232.728 297.277 230.443 307.176 230.438C317.074 230.434 326.85 232.71 335.727 237.09ZM17.0667 247.466L61.5851 247.535C62.5381 247.535 63.4804 247.736 64.3504 248.125C65.2204 248.514 65.9985 249.082 66.6339 249.793C67.2694 250.503 67.7478 251.339 68.0379 252.247C68.3281 253.155 68.4235 254.114 68.3179 255.061L53.9733 384.059L17.0667 384V247.466ZM109.09 424.678C105.969 422.769 103.718 419.716 102.818 416.17C101.917 412.624 102.438 408.867 104.269 405.7L108.041 399.257C109.213 397.214 110.905 395.516 112.944 394.335C114.983 393.154 117.298 392.533 119.654 392.533C122.061 392.533 124.416 393.199 126.481 394.436C130.662 396.953 133.188 401.502 133.129 406.383C133.137 408.84 132.506 411.247 131.285 413.38L127.514 419.814C125.722 422.946 122.752 425.224 119.262 426.137C117.555 426.583 115.776 426.684 114.029 426.433C112.282 426.182 110.603 425.586 109.09 424.678ZM147.081 447.385C143.961 445.475 141.712 442.421 140.813 438.875C139.914 435.33 140.436 431.573 142.268 428.407L146.048 421.947C147.221 419.906 148.911 418.209 150.949 417.028C152.986 415.848 155.299 415.225 157.653 415.223C160.06 415.223 162.415 415.889 164.48 417.126C170.837 421.06 172.988 429.286 169.387 435.831V435.882L165.521 442.538L165.47 442.641C164.582 444.163 163.401 445.495 161.996 446.559C160.59 447.623 158.988 448.397 157.281 448.839C155.575 449.28 153.797 449.378 152.053 449.129C150.308 448.88 148.629 448.287 147.115 447.385H147.081ZM185.173 470.05C182.053 468.175 179.791 465.155 178.869 461.634C177.947 458.113 178.44 454.371 180.241 451.208L180.309 451.114L184.081 444.655C184.141 444.561 184.183 444.45 184.235 444.347C185.124 442.848 186.301 441.538 187.698 440.494C189.094 439.45 190.683 438.692 192.373 438.263C194.063 437.834 195.821 437.743 197.547 437.995C199.272 438.247 200.931 438.837 202.428 439.731C208.947 443.656 211.132 452.07 207.326 458.658L203.452 465.314C202.57 466.833 201.396 468.162 199.997 469.224C198.598 470.286 197.002 471.06 195.302 471.501C193.602 471.941 191.831 472.04 190.092 471.791C188.354 471.542 186.682 470.95 185.173 470.05ZM233.293 494.174C229.862 495.087 226.21 494.558 223.164 492.723L223.044 492.646C219.946 490.783 217.702 487.78 216.795 484.281C215.887 480.782 216.387 477.066 218.189 473.933L220.587 469.802L222.114 467.174C223.006 465.648 224.193 464.315 225.605 463.253C227.017 462.19 228.627 461.419 230.34 460.985C232.053 460.55 233.835 460.461 235.583 460.722C237.331 460.984 239.009 461.59 240.521 462.506C243.628 464.376 245.877 467.39 246.784 470.902C247.69 474.413 247.182 478.14 245.367 481.28L241.425 488.055C239.633 491.11 236.689 493.32 233.25 494.174H233.293ZM345.301 387.746C343.517 386.353 341.252 385.726 339.005 386.003C336.758 386.28 334.714 387.438 333.321 389.222C331.928 391.007 331.301 393.271 331.577 395.518C331.854 397.765 333.012 399.81 334.797 401.203L341.555 406.494C342.938 407.558 344.096 408.885 344.963 410.4C345.83 411.914 346.388 413.585 346.605 415.316C346.823 417.047 346.695 418.804 346.23 420.486C345.764 422.168 344.97 423.74 343.893 425.113C342.872 426.477 341.589 427.623 340.119 428.484C338.649 429.345 337.021 429.904 335.333 430.128C333.644 430.352 331.927 430.237 330.283 429.789C328.639 429.341 327.102 428.57 325.76 427.52L320.154 423.151C319.28 422.449 318.277 421.925 317.201 421.611C316.125 421.297 314.998 421.197 313.884 421.319C312.77 421.44 311.691 421.779 310.708 422.318C309.725 422.856 308.858 423.583 308.156 424.456C307.454 425.33 306.931 426.333 306.616 427.409C306.302 428.484 306.202 429.611 306.324 430.726C306.445 431.84 306.784 432.919 307.323 433.902C307.861 434.885 308.588 435.752 309.461 436.454L309.606 436.565C315.375 441.122 316.407 449.467 311.919 455.287C310.894 456.637 309.612 457.77 308.146 458.62C306.679 459.47 305.059 460.021 303.379 460.24C301.698 460.459 299.991 460.342 298.356 459.897C296.721 459.451 295.19 458.684 293.854 457.642C292.961 456.954 291.941 456.449 290.852 456.155C289.764 455.861 288.628 455.784 287.51 455.929C286.392 456.074 285.314 456.438 284.336 457C283.359 457.562 282.501 458.311 281.813 459.204C281.125 460.097 280.62 461.117 280.326 462.205C280.032 463.294 279.955 464.43 280.1 465.548C280.245 466.666 280.609 467.744 281.171 468.722C281.733 469.699 282.482 470.556 283.375 471.244C288.922 475.682 290.082 483.669 286.02 489.497L285.713 489.881C284.678 491.233 283.386 492.368 281.913 493.22C280.439 494.073 278.811 494.626 277.124 494.85C275.436 495.073 273.72 494.962 272.075 494.522C270.431 494.083 268.888 493.323 267.537 492.288L261.197 487.364C264.45 480.445 265.022 472.566 262.801 465.25C260.58 457.934 255.724 451.703 249.173 447.761C245.734 445.684 241.912 444.32 237.936 443.748C233.959 443.176 229.908 443.409 226.022 444.433C225.792 444.493 225.596 444.612 225.365 444.672C224.449 440.612 222.72 436.78 220.282 433.407C217.845 430.034 214.749 427.19 211.183 425.045C207.741 422.974 203.92 421.613 199.943 421.042C195.967 420.472 191.917 420.705 188.032 421.726C187.81 421.785 187.614 421.896 187.401 421.956C186.509 417.968 184.824 414.2 182.446 410.876C180.069 407.553 177.047 404.741 173.561 402.609C170.074 400.477 166.195 399.068 162.153 398.466C158.111 397.864 153.989 398.081 150.033 399.104C149.811 399.163 149.615 399.283 149.393 399.343C148.482 395.289 146.761 391.461 144.334 388.088C141.907 384.716 138.825 381.868 135.27 379.716C131.809 377.649 127.971 376.29 123.98 375.72C119.988 375.149 115.924 375.378 112.022 376.393C108.12 377.408 104.458 379.188 101.251 381.631C98.0432 384.074 95.3533 387.13 93.3376 390.622L90.5643 395.366L70.8267 387.191L84.4288 264.533H137.045C143.645 264.542 150.156 263.008 156.058 260.053L201.822 237.115C216.324 229.989 232.973 228.567 248.474 233.13L235.46 239.658C222.754 246.017 211.837 255.447 203.699 267.093L164.403 323.251C160.613 328.562 159.003 335.124 159.904 341.586C160.806 348.049 164.151 353.919 169.25 357.99C177.028 364.203 186.926 367.129 196.832 366.144C206.738 365.159 215.866 360.34 222.268 352.716L261.862 305.365C263.244 303.685 265.214 302.597 267.371 302.321C269.527 302.045 271.708 302.602 273.468 303.88L359.381 363.929C363.622 367.001 366.362 371.712 366.933 376.917C367.3 380.672 366.037 384.392 363.477 387.157C361.039 389.452 357.847 390.778 354.501 390.886C351.154 390.995 347.883 389.878 345.301 387.746ZM494.933 384L458.035 384.059L443.733 255.061C443.628 254.112 443.723 253.152 444.015 252.243C444.306 251.334 444.786 250.497 445.423 249.786C446.06 249.076 446.84 248.508 447.712 248.12C448.585 247.732 449.529 247.532 450.483 247.535L494.933 247.466V384Z" fill="#1E73BE"/>
</g>
<defs>
<clipPath id="clip0_2019_61">
<rect width="512" height="512" fill="white"/>
</clipPath>
</defs>
</svg>
