<svg width="512" height="512" viewBox="0 0 512 512" fill="none" xmlns="http://www.w3.org/2000/svg">
<g clip-path="url(#clip0_2021_70)">
<path d="M5.064 359.332C5.236 359.396 22.4 366.488 25.516 378.808C25.8112 379.96 26.3593 381.033 27.1205 381.947C27.8817 382.862 28.837 383.596 29.917 384.095C30.9971 384.594 32.1747 384.847 33.3646 384.835C34.5544 384.822 35.7266 384.545 36.796 384.024C37.008 383.924 57.976 373.892 70.636 383.272C74.3596 386.213 78.72 388.241 83.3682 389.195C88.0163 390.148 92.8231 390.001 97.404 388.764C98.6562 388.455 99.9356 388.27 101.224 388.212C101.725 388.602 102.146 389.086 102.464 389.636C104.963 393.153 108.182 396.099 111.905 398.279C115.629 400.458 119.773 401.822 124.064 402.28C127.843 402.581 131.438 404.034 134.364 406.444L136.404 408.48C147.22 419.36 154.504 421.856 169.044 407.912C171.954 404.981 175.372 402.602 179.132 400.892C182.131 399.671 184.83 397.815 187.043 395.451C189.256 393.088 190.931 390.273 191.952 387.2C193.5 383.484 205.388 380.732 210.46 379.556C218.048 377.804 225.212 376.144 225.212 368.524C225.212 368.284 225.236 367.984 225.256 367.636C225.739 364.74 225.521 361.77 224.619 358.976C223.718 356.181 222.16 353.644 220.076 351.576C217.873 349.749 215.184 348.604 212.34 348.284C214.14 347.826 216.014 347.739 217.848 348.028C225.079 349.272 232.509 348.589 239.392 346.048C239.688 345.944 240.036 345.824 240.356 345.72C240.556 345.912 240.796 346.16 241.092 346.488C242.756 348.34 242.74 348.416 242.428 350.316C241.826 353.019 241.884 355.827 242.597 358.503C243.311 361.179 244.659 363.644 246.528 365.688C247.178 366.43 247.723 367.258 248.148 368.148C246.859 368.583 245.512 368.821 244.152 368.856C242.235 368.849 240.337 369.233 238.573 369.983C236.808 370.733 235.215 371.834 233.89 373.219C232.565 374.604 231.535 376.244 230.864 378.04C230.192 379.835 229.893 381.749 229.984 383.664C230.28 394.4 241.184 405.984 258.28 405.984C265.024 405.984 266.032 407.452 267.708 409.884C269.4 412.966 272.154 415.329 275.457 416.535C278.76 417.741 282.388 417.707 285.668 416.44C292.832 414.48 295.612 414.74 298.68 425.476C299.903 429.777 302.531 433.544 306.145 436.176C309.76 438.809 314.151 440.155 318.62 440C320.083 439.999 321.543 439.86 322.98 439.584C332.616 437.72 338.732 430.528 337.848 422.104L337.72 420.912C336.922 415.654 336.764 410.319 337.248 405.024C341.168 403.456 352.004 396.276 388.416 356.98C388.797 356.553 389.139 356.092 389.436 355.604C391.373 352.774 394.08 350.559 397.237 349.221C400.394 347.882 403.868 347.477 407.248 348.052C414.774 348.996 422.415 347.905 429.376 344.892C434.346 342.55 439.953 341.926 445.316 343.116C450.019 344.044 454.612 345.457 459.024 347.332C466.996 350.484 474.524 353.46 487.476 347.228C490.978 345.72 494.017 343.31 496.281 340.243C498.546 337.176 499.955 333.562 500.364 329.772C500.456 329.256 500.576 328.612 500.684 328.152C501.887 327.842 503.122 327.676 504.364 327.656C506.126 327.576 507.812 326.916 509.16 325.778C510.508 324.641 511.442 323.09 511.818 321.367C512.193 319.644 511.989 317.845 511.236 316.25C510.483 314.655 509.225 313.353 507.656 312.548L420.164 267.628C422.494 264.287 423.692 260.287 423.58 256.216C423.407 254.06 422.72 251.978 421.576 250.143C420.433 248.308 418.866 246.773 417.008 245.668C414.048 243.398 411.787 240.341 410.481 236.847C409.175 233.353 408.878 229.562 409.624 225.908C410.487 222.669 410.41 219.251 409.4 216.054C408.391 212.858 406.491 210.015 403.924 207.86C397.044 202.06 386.148 201.32 375.5 205.932C372.632 207.402 369.347 207.846 366.192 207.188C359.956 206.356 353.896 206.192 342.764 212.568C338.476 215.02 338.036 214.66 333.884 211.2C330.701 207.936 326.652 205.649 322.214 204.606C317.776 203.563 313.132 203.808 308.828 205.312C300.108 208.128 299.164 207.736 297.456 207.032C293.686 205.413 289.661 204.474 285.564 204.256C281.856 203.976 281.42 203.508 280.552 202.584C278.608 200.427 276.181 198.761 273.469 197.723C270.758 196.684 267.839 196.302 264.952 196.608C260.332 196.609 255.718 196.922 251.14 197.544C247.488 198.168 243.762 198.229 240.092 197.724C236.136 196.966 232.042 197.46 228.379 199.136C224.716 200.812 221.666 203.587 219.652 207.076C218.496 209.349 217.937 211.879 218.028 214.428C212.821 210.579 208.698 205.449 206.06 199.536C195.448 179.076 187.348 176.256 178.6 174.868C176.195 174.8 173.905 173.824 172.192 172.136C168.844 168.886 165.714 165.419 162.824 161.756C158.761 156.339 153.885 151.582 148.368 147.656C148.998 146.654 149.654 145.67 150.336 144.704C153.436 140.224 157.288 134.66 155.748 128.02C155.21 125.946 154.231 124.013 152.877 122.353C151.523 120.692 149.827 119.344 147.904 118.4C145.519 116.813 142.803 115.793 139.964 115.416C137.124 115.04 134.236 115.317 131.52 116.228C129.348 116.868 126.868 117.588 116.84 112.016C115.287 110.991 113.482 110.416 111.623 110.351C109.764 110.287 107.924 110.737 106.304 111.652C104.569 112.885 103.209 114.575 102.375 116.533C101.541 118.491 101.264 120.642 101.576 122.748C96.444 120.18 96.016 112.844 96.688 106.708C99.16 84.1397 82.012 81.3957 72.8 79.9197C65.4487 79.1662 58.0442 80.7029 51.6 84.3197C50.422 81.9818 48.7582 79.9225 46.72 78.2797C34.768 68.5317 11.028 72.7957 6.392 73.7437C4.58716 74.114 2.96547 75.0959 1.80088 76.5236C0.63628 77.9513 0.000168108 79.7372 0 81.5797L0 351.892C0.000354629 353.497 0.483474 355.064 1.38657 356.391C2.28967 357.718 3.57099 358.743 5.064 359.332ZM16 88.4557C23.84 87.6277 33.124 87.8317 36.608 90.6797C36.9589 90.9502 37.2318 91.3089 37.3991 91.7193C37.5663 92.1296 37.6218 92.5769 37.56 93.0157C37.4925 94.6975 37.8669 96.3677 38.646 97.8597C39.425 99.3518 40.5814 100.614 42 101.52C46.88 104.532 51.748 102.108 56.456 99.7597C60.5956 97.153 65.3802 95.7525 70.272 95.7157C81.6 97.5317 81.496 98.5237 80.788 104.968C78.704 124.008 86.828 137.2 101.988 139.4C103.941 139.791 105.957 139.74 107.887 139.25C109.818 138.76 111.614 137.843 113.144 136.568C115.105 134.809 116.464 132.48 117.032 129.908C122.893 132.925 129.703 133.528 136.004 131.588C136.572 131.324 137.203 131.226 137.823 131.306C138.444 131.386 139.03 131.64 139.512 132.04C138.872 133.164 137.872 134.6 137.188 135.592C134.26 139.82 130.616 145.08 131.844 151.288C132.229 153.096 132.983 154.806 134.058 156.31C135.134 157.814 136.509 159.079 138.096 160.028C142.874 163.22 147.052 167.231 150.436 171.876C153.739 176.052 157.315 180.004 161.14 183.708C165.191 187.655 170.463 190.109 176.092 190.668C180.392 191.348 184.1 191.94 191.86 206.904C198.788 220.264 207.18 228.488 216.804 231.34C222.663 233.189 229.012 232.683 234.504 229.928C235.569 229.323 236.481 228.482 237.17 227.469C237.858 226.457 238.305 225.299 238.476 224.087C238.647 222.874 238.537 221.638 238.155 220.475C237.773 219.311 237.129 218.251 236.272 217.376C235.361 216.462 234.581 215.425 233.956 214.296C234.527 213.923 235.165 213.667 235.835 213.542C236.505 213.417 237.193 213.426 237.86 213.568C242.919 214.278 248.055 214.229 253.1 213.424C257.029 212.881 260.99 212.608 264.956 212.608C266.064 212.578 267.173 212.672 268.26 212.888C268.484 213.087 268.694 213.303 268.888 213.532C270.844 215.679 273.236 217.385 275.903 218.536C278.57 219.687 281.452 220.257 284.356 220.208C286.77 220.3 289.145 220.847 291.356 221.82C297.332 224.28 301.616 224.46 313.748 220.536C318.32 219.056 319.772 220.264 323.644 223.492C328.556 227.584 336.772 234.432 350.724 226.452C358.056 222.252 360.58 222.584 364.084 223.048C370.122 224.089 376.334 223.236 381.868 220.608C387.48 218.176 391.884 218.628 393.612 220.088C393.932 220.36 394.412 220.768 394.084 222.112C392.635 228.758 393.09 235.678 395.396 242.077C397.703 248.476 401.768 254.095 407.124 258.288C405.786 260.434 404.142 262.375 402.244 264.048C401.253 264.904 400.487 265.99 400.013 267.212C399.54 268.433 399.374 269.752 399.53 271.053C399.685 272.353 400.158 273.596 400.906 274.671C401.654 275.746 402.655 276.622 403.82 277.22L486.9 319.876C485.768 322.088 484.999 324.468 484.62 326.924C484.028 330.22 483.848 331.216 480.528 332.816C473.896 336.016 471.632 335.116 464.916 332.456C459.552 330.194 453.967 328.496 448.252 327.392C440.02 325.665 431.454 326.549 423.748 329.92C419.169 332.02 414.093 332.796 409.096 332.16C402.811 331.262 396.401 332.141 390.589 334.695C384.778 337.25 379.796 341.379 376.208 346.616C358.736 365.444 337.208 386.952 331.86 389.944C318.7 393.152 320.568 410.832 321.816 422.6L321.872 423.156C320.44 423.962 318.763 424.218 317.156 423.876C316.417 423.782 315.725 423.463 315.172 422.963C314.62 422.463 314.235 421.806 314.068 421.08C309.956 406.692 302.376 399.592 291.012 399.592C287.774 399.636 284.556 400.114 281.444 401.012C281.324 401.043 281.204 401.074 281.084 401.104L280.896 400.824C278.296 397.036 273.448 389.984 258.284 389.984C256.363 390.105 254.436 389.835 252.622 389.191C250.808 388.547 249.143 387.541 247.728 386.236C247.272 385.78 246.875 385.269 246.544 384.716C257.644 383.656 261.732 378.02 263.192 374.66C265.736 368.804 264.136 361.792 258.804 355.42C258.487 355.102 258.228 354.733 258.036 354.328C258.069 353.85 258.132 353.374 258.224 352.904C258.887 349.847 258.756 346.671 257.843 343.679C256.931 340.687 255.268 337.979 253.012 335.812C250.946 332.914 247.925 330.836 244.481 329.943C241.036 329.049 237.386 329.396 234.172 330.924C229.684 332.636 224.809 333.072 220.088 332.184C214.757 331.305 209.286 331.998 204.343 334.179C199.4 336.36 195.2 339.934 192.256 344.464C190.617 346.755 189.706 349.487 189.64 352.303C189.575 355.119 190.358 357.89 191.888 360.256C193.082 361.829 194.638 363.091 196.425 363.934C198.211 364.776 200.174 365.175 202.148 365.096C192.688 367.48 181.196 371.428 177.188 381.044C175.608 384.828 175.216 385.02 172.172 386.492C166.899 388.931 162.093 392.273 157.972 396.368C156.19 398.22 154.199 399.86 152.04 401.256C150.541 399.98 149.11 398.628 147.752 397.204L145.608 395.06C140.522 390.422 134.125 387.471 127.296 386.612C121.36 385.388 118.392 384.628 115.732 380.684C108.664 370.22 99.668 372 94.292 373.068C91.9068 373.877 89.3532 374.058 86.8777 373.593C84.4021 373.128 82.0884 372.032 80.16 370.412C65.968 359.896 47.88 363.28 37.664 366.572C32.3745 358.147 24.8833 351.328 16 346.852V88.4557Z" fill="white"/>
</g>
<defs>
<clipPath id="clip0_2021_70">
<rect width="512" height="512" fill="white"/>
</clipPath>
</defs>
</svg>
